<mxfile host="app.diagrams.net" modified="2023-04-08T13:39:54.586Z" agent="Mozilla/5.0 (Windows NT 10.0; Win64; x64) AppleWebKit/537.36 (KHTML, like Gecko) Chrome/111.0.0.0 Safari/537.36" etag="WrGoZ9xnrukftINIB-vQ" version="21.1.4" type="github">
  <diagram name="Page-1" id="13e1069c-82ec-6db2-03f1-153e76fe0fe0">
    <mxGraphModel dx="637" dy="807" grid="1" gridSize="10" guides="1" tooltips="1" connect="1" arrows="1" fold="1" page="1" pageScale="1" pageWidth="1100" pageHeight="850" background="none" math="0" shadow="0">
      <root>
        <mxCell id="0" />
        <mxCell id="1" parent="0" />
        <mxCell id="z_axLbrETJpaAguhvrRl-1" value=":CollectNodeInfo" style="shape=umlLifeline;perimeter=lifelinePerimeter;whiteSpace=wrap;html=1;container=1;collapsible=0;recursiveResize=0;outlineConnect=0;rounded=1;shadow=0;comic=0;labelBackgroundColor=none;strokeWidth=1;fontFamily=Verdana;fontSize=12;align=center;" parent="1" vertex="1">
          <mxGeometry x="1384" y="140" width="120" height="570" as="geometry" />
        </mxCell>
        <mxCell id="z_axLbrETJpaAguhvrRl-2" value="" style="html=1;points=[];perimeter=orthogonalPerimeter;rounded=0;shadow=0;comic=0;labelBackgroundColor=none;strokeWidth=1;fontFamily=Verdana;fontSize=12;align=center;" parent="z_axLbrETJpaAguhvrRl-1" vertex="1">
          <mxGeometry x="55" y="83" width="10" height="487" as="geometry" />
        </mxCell>
        <mxCell id="z_axLbrETJpaAguhvrRl-6" value=":CGOProm2Json" style="shape=umlLifeline;perimeter=lifelinePerimeter;whiteSpace=wrap;html=1;container=1;collapsible=0;recursiveResize=0;outlineConnect=0;rounded=1;shadow=0;comic=0;labelBackgroundColor=none;strokeWidth=1;fontFamily=Verdana;fontSize=12;align=center;" parent="1" vertex="1">
          <mxGeometry x="1550" y="140" width="100" height="570" as="geometry" />
        </mxCell>
        <mxCell id="z_axLbrETJpaAguhvrRl-7" value="" style="html=1;points=[];perimeter=orthogonalPerimeter;rounded=0;shadow=0;comic=0;labelBackgroundColor=none;strokeWidth=1;fontFamily=Verdana;fontSize=12;align=center;" parent="z_axLbrETJpaAguhvrRl-6" vertex="1">
          <mxGeometry x="45" y="277" width="10" height="172" as="geometry" />
        </mxCell>
        <mxCell id="z_axLbrETJpaAguhvrRl-8" value=":prom2json" style="shape=umlLifeline;perimeter=lifelinePerimeter;whiteSpace=wrap;html=1;container=1;collapsible=0;recursiveResize=0;outlineConnect=0;rounded=1;shadow=0;comic=0;labelBackgroundColor=none;strokeWidth=1;fontFamily=Verdana;fontSize=12;align=center;" parent="1" vertex="1">
          <mxGeometry x="1690" y="140" width="100" height="570" as="geometry" />
        </mxCell>
        <mxCell id="z_axLbrETJpaAguhvrRl-9" value="" style="html=1;points=[];perimeter=orthogonalPerimeter;rounded=0;shadow=0;comic=0;labelBackgroundColor=none;strokeWidth=1;fontFamily=Verdana;fontSize=12;align=center;" parent="z_axLbrETJpaAguhvrRl-8" vertex="1">
          <mxGeometry x="45" y="287" width="10" height="183" as="geometry" />
        </mxCell>
        <mxCell id="z_axLbrETJpaAguhvrRl-10" value="" style="html=1;points=[];perimeter=orthogonalPerimeter;rounded=0;shadow=0;comic=0;labelBackgroundColor=none;strokeWidth=1;fontFamily=Verdana;fontSize=12;align=center;" parent="z_axLbrETJpaAguhvrRl-8" vertex="1">
          <mxGeometry x="50" y="364" width="10" height="96" as="geometry" />
        </mxCell>
        <mxCell id="z_axLbrETJpaAguhvrRl-12" value=":Node Expoter" style="shape=umlLifeline;perimeter=lifelinePerimeter;whiteSpace=wrap;html=1;container=1;collapsible=0;recursiveResize=0;outlineConnect=0;rounded=1;shadow=0;comic=0;labelBackgroundColor=none;strokeWidth=1;fontFamily=Verdana;fontSize=12;align=center;" parent="1" vertex="1">
          <mxGeometry x="1830" y="140" width="100" height="570" as="geometry" />
        </mxCell>
        <mxCell id="z_axLbrETJpaAguhvrRl-13" value="" style="html=1;points=[];perimeter=orthogonalPerimeter;rounded=0;shadow=0;comic=0;labelBackgroundColor=none;strokeWidth=1;fontFamily=Verdana;fontSize=12;align=center;" parent="z_axLbrETJpaAguhvrRl-12" vertex="1">
          <mxGeometry x="45" y="300" width="10" height="40" as="geometry" />
        </mxCell>
        <mxCell id="z_axLbrETJpaAguhvrRl-14" value="collectAll" style="html=1;verticalAlign=bottom;endArrow=block;labelBackgroundColor=none;fontFamily=Verdana;fontSize=12;edgeStyle=elbowEdgeStyle;elbow=vertical;" parent="1" source="z_axLbrETJpaAguhvrRl-7" target="z_axLbrETJpaAguhvrRl-9" edge="1">
          <mxGeometry relative="1" as="geometry">
            <mxPoint x="1660" y="297" as="sourcePoint" />
            <Array as="points">
              <mxPoint x="1680" y="427" />
              <mxPoint x="1660" y="417" />
              <mxPoint x="1710" y="367" />
              <mxPoint x="1670" y="357" />
            </Array>
            <mxPoint as="offset" />
          </mxGeometry>
        </mxCell>
        <mxCell id="z_axLbrETJpaAguhvrRl-15" value="request" style="html=1;verticalAlign=bottom;endArrow=block;entryX=0;entryY=0;labelBackgroundColor=none;fontFamily=Verdana;fontSize=12;edgeStyle=elbowEdgeStyle;elbow=vertical;" parent="1" target="z_axLbrETJpaAguhvrRl-13" edge="1">
          <mxGeometry relative="1" as="geometry">
            <mxPoint x="1745" y="439.66666666666674" as="sourcePoint" />
          </mxGeometry>
        </mxCell>
        <mxCell id="z_axLbrETJpaAguhvrRl-16" value="return" style="html=1;verticalAlign=bottom;endArrow=open;dashed=1;endSize=8;labelBackgroundColor=none;fontFamily=Verdana;fontSize=12;edgeStyle=elbowEdgeStyle;elbow=vertical;exitX=-0.077;exitY=0.991;exitDx=0;exitDy=0;exitPerimeter=0;" parent="1" edge="1">
          <mxGeometry relative="1" as="geometry">
            <mxPoint x="1745" y="473" as="targetPoint" />
            <Array as="points">
              <mxPoint x="1825" y="473" />
              <mxPoint x="1825" y="419" />
              <mxPoint x="1855" y="419" />
            </Array>
            <mxPoint x="1874.2299999999998" y="472.64" as="sourcePoint" />
          </mxGeometry>
        </mxCell>
        <mxCell id="z_axLbrETJpaAguhvrRl-17" value="return" style="html=1;verticalAlign=bottom;endArrow=open;dashed=1;endSize=8;labelBackgroundColor=none;fontFamily=Verdana;fontSize=12;edgeStyle=elbowEdgeStyle;elbow=vertical;" parent="1" edge="1">
          <mxGeometry x="0.014" y="17" relative="1" as="geometry">
            <mxPoint x="1455" y="600" as="targetPoint" />
            <Array as="points">
              <mxPoint x="1740" y="600" />
              <mxPoint x="1610" y="618" />
              <mxPoint x="1600" y="625" />
            </Array>
            <mxPoint x="1735" y="599" as="sourcePoint" />
            <mxPoint as="offset" />
          </mxGeometry>
        </mxCell>
        <mxCell id="z_axLbrETJpaAguhvrRl-18" value="collectNodeInfo" style="html=1;verticalAlign=bottom;endArrow=block;entryX=0;entryY=0;labelBackgroundColor=none;fontFamily=Verdana;fontSize=12;edgeStyle=elbowEdgeStyle;elbow=vertical;" parent="1" source="z_axLbrETJpaAguhvrRl-20" target="z_axLbrETJpaAguhvrRl-2" edge="1">
          <mxGeometry x="0.0078" relative="1" as="geometry">
            <mxPoint x="1284.33" y="224.31999999999994" as="sourcePoint" />
            <mxPoint as="offset" />
          </mxGeometry>
        </mxCell>
        <mxCell id="z_axLbrETJpaAguhvrRl-20" value="LoadBalancer" style="shape=umlActor;verticalLabelPosition=bottom;verticalAlign=top;html=1;outlineConnect=0;fontSize=12;" parent="1" vertex="1">
          <mxGeometry x="1280" y="203" width="30" height="60" as="geometry" />
        </mxCell>
        <mxCell id="z_axLbrETJpaAguhvrRl-21" value="collectAllServerInfo" style="html=1;verticalAlign=bottom;endArrow=block;entryX=0;entryY=0;labelBackgroundColor=none;fontFamily=Verdana;fontSize=12;edgeStyle=elbowEdgeStyle;elbow=vertical;startArrow=none;" parent="1" edge="1">
          <mxGeometry relative="1" as="geometry">
            <mxPoint x="1454" y="417" as="sourcePoint" />
            <mxPoint x="1596" y="417" as="targetPoint" />
            <mxPoint as="offset" />
          </mxGeometry>
        </mxCell>
        <mxCell id="z_axLbrETJpaAguhvrRl-22" value=":UpdateWeight" style="shape=umlLifeline;perimeter=lifelinePerimeter;whiteSpace=wrap;html=1;container=1;collapsible=0;recursiveResize=0;outlineConnect=0;rounded=1;shadow=0;comic=0;labelBackgroundColor=none;strokeWidth=1;fontFamily=Verdana;fontSize=12;align=center;" parent="1" vertex="1">
          <mxGeometry x="1970" y="140" width="100" height="570" as="geometry" />
        </mxCell>
        <mxCell id="z_axLbrETJpaAguhvrRl-23" value="" style="html=1;points=[];perimeter=orthogonalPerimeter;rounded=0;shadow=0;comic=0;labelBackgroundColor=none;strokeWidth=1;fontFamily=Verdana;fontSize=12;align=center;" parent="z_axLbrETJpaAguhvrRl-22" vertex="1">
          <mxGeometry x="45" y="522" width="10" height="40" as="geometry" />
        </mxCell>
        <mxCell id="z_axLbrETJpaAguhvrRl-24" value="enqueue" style="html=1;verticalAlign=bottom;endArrow=block;labelBackgroundColor=none;fontFamily=Verdana;fontSize=12;edgeStyle=elbowEdgeStyle;elbow=vertical;entryX=-0.081;entryY=0.027;entryDx=0;entryDy=0;entryPerimeter=0;" parent="1" edge="1">
          <mxGeometry relative="1" as="geometry">
            <mxPoint x="1450" y="667" as="sourcePoint" />
            <mxPoint x="2014.19" y="667.0800000000002" as="targetPoint" />
            <Array as="points">
              <mxPoint x="2020" y="667" />
              <mxPoint x="1740" y="671" />
            </Array>
          </mxGeometry>
        </mxCell>
        <mxCell id="z_axLbrETJpaAguhvrRl-25" value="return" style="html=1;verticalAlign=bottom;endArrow=open;dashed=1;endSize=8;labelBackgroundColor=none;fontFamily=Verdana;fontSize=12;edgeStyle=elbowEdgeStyle;elbow=vertical;exitX=0.02;exitY=0.987;exitDx=0;exitDy=0;exitPerimeter=0;entryX=0.972;entryY=0.989;entryDx=0;entryDy=0;entryPerimeter=0;" parent="1" source="z_axLbrETJpaAguhvrRl-23" target="z_axLbrETJpaAguhvrRl-28" edge="1">
          <mxGeometry relative="1" as="geometry">
            <mxPoint x="1450.52" y="696.1599999999999" as="targetPoint" />
            <Array as="points">
              <mxPoint x="1680" y="696" />
              <mxPoint x="1821" y="693" />
              <mxPoint x="1791" y="702" />
              <mxPoint x="1891" y="715" />
              <mxPoint x="1881" y="722" />
            </Array>
            <mxPoint x="2014" y="693" as="sourcePoint" />
          </mxGeometry>
        </mxCell>
        <mxCell id="z_axLbrETJpaAguhvrRl-27" value="" style="html=1;verticalAlign=bottom;endArrow=none;entryX=0;entryY=0;labelBackgroundColor=none;fontFamily=Verdana;fontSize=12;edgeStyle=elbowEdgeStyle;elbow=vertical;" parent="1" target="z_axLbrETJpaAguhvrRl-28" edge="1">
          <mxGeometry relative="1" as="geometry">
            <mxPoint x="1450" y="417" as="sourcePoint" />
            <mxPoint x="1596" y="417" as="targetPoint" />
            <mxPoint as="offset" />
          </mxGeometry>
        </mxCell>
        <mxCell id="z_axLbrETJpaAguhvrRl-28" value="" style="html=1;points=[];perimeter=orthogonalPerimeter;rounded=0;shadow=0;comic=0;labelBackgroundColor=none;strokeWidth=1;fontFamily=Verdana;fontSize=12;align=center;" parent="1" vertex="1">
          <mxGeometry x="1444" y="385" width="10" height="315" as="geometry" />
        </mxCell>
        <mxCell id="z_axLbrETJpaAguhvrRl-31" value="isClassicAlgor" style="html=1;align=left;spacingLeft=2;endArrow=block;rounded=0;edgeStyle=orthogonalEdgeStyle;curved=0;rounded=0;strokeWidth=1;fontSize=12;labelBackgroundColor=none;fontColor=default;" parent="1" edge="1">
          <mxGeometry x="0.0228" relative="1" as="geometry">
            <mxPoint x="1450" y="235" as="sourcePoint" />
            <Array as="points">
              <mxPoint x="1480" y="265" />
            </Array>
            <mxPoint x="1455" y="265" as="targetPoint" />
            <mxPoint as="offset" />
          </mxGeometry>
        </mxCell>
        <mxCell id="z_axLbrETJpaAguhvrRl-32" value="" style="html=1;points=[];perimeter=orthogonalPerimeter;rounded=0;shadow=0;comic=0;labelBackgroundColor=none;strokeWidth=1;fontFamily=Verdana;fontSize=12;align=center;" parent="1" vertex="1">
          <mxGeometry x="1444" y="253" width="10" height="30" as="geometry" />
        </mxCell>
        <mxCell id="z_axLbrETJpaAguhvrRl-34" value="readNodeConfig" style="html=1;align=left;spacingLeft=2;endArrow=block;rounded=0;edgeStyle=orthogonalEdgeStyle;curved=0;rounded=0;strokeWidth=1;fontSize=12;labelBackgroundColor=none;fontColor=default;" parent="1" edge="1">
          <mxGeometry x="0.0228" relative="1" as="geometry">
            <mxPoint x="1449" y="292" as="sourcePoint" />
            <Array as="points">
              <mxPoint x="1479" y="322" />
            </Array>
            <mxPoint x="1454" y="322" as="targetPoint" />
            <mxPoint as="offset" />
          </mxGeometry>
        </mxCell>
        <mxCell id="z_axLbrETJpaAguhvrRl-35" value="" style="html=1;points=[];perimeter=orthogonalPerimeter;rounded=0;shadow=0;comic=0;labelBackgroundColor=none;strokeWidth=1;fontFamily=Verdana;fontSize=12;align=center;" parent="1" vertex="1">
          <mxGeometry x="1443" y="310" width="10" height="30" as="geometry" />
        </mxCell>
        <mxCell id="z_axLbrETJpaAguhvrRl-36" value="collectAllNodeInfo" style="html=1;align=left;spacingLeft=2;endArrow=block;rounded=0;edgeStyle=orthogonalEdgeStyle;curved=0;rounded=0;strokeWidth=1;fontSize=12;labelBackgroundColor=none;fontColor=default;" parent="1" edge="1">
          <mxGeometry x="0.0212" relative="1" as="geometry">
            <mxPoint x="1449" y="362" as="sourcePoint" />
            <Array as="points">
              <mxPoint x="1479" y="392" />
            </Array>
            <mxPoint x="1454" y="392" as="targetPoint" />
            <mxPoint as="offset" />
          </mxGeometry>
        </mxCell>
        <mxCell id="z_axLbrETJpaAguhvrRl-37" value="convertInfo" style="html=1;align=left;spacingLeft=2;endArrow=block;rounded=0;edgeStyle=orthogonalEdgeStyle;curved=0;rounded=0;strokeWidth=1;fontSize=12;labelBackgroundColor=none;fontColor=default;" parent="1" edge="1">
          <mxGeometry x="0.0196" relative="1" as="geometry">
            <mxPoint x="1456" y="613" as="sourcePoint" />
            <Array as="points">
              <mxPoint x="1486" y="643" />
            </Array>
            <mxPoint x="1461" y="643" as="targetPoint" />
            <mxPoint as="offset" />
          </mxGeometry>
        </mxCell>
        <mxCell id="z_axLbrETJpaAguhvrRl-38" value="" style="html=1;points=[];perimeter=orthogonalPerimeter;rounded=0;shadow=0;comic=0;labelBackgroundColor=none;strokeWidth=1;fontFamily=Verdana;fontSize=12;align=center;" parent="1" vertex="1">
          <mxGeometry x="1450" y="631" width="10" height="30" as="geometry" />
        </mxCell>
        <mxCell id="z_axLbrETJpaAguhvrRl-39" value="convertToJson" style="html=1;align=left;spacingLeft=2;endArrow=block;rounded=0;edgeStyle=orthogonalEdgeStyle;curved=0;rounded=0;strokeWidth=1;fontSize=12;labelBackgroundColor=none;fontColor=default;" parent="1" edge="1">
          <mxGeometry x="0.0196" relative="1" as="geometry">
            <mxPoint x="1751" y="537" as="sourcePoint" />
            <Array as="points">
              <mxPoint x="1781" y="567" />
            </Array>
            <mxPoint x="1756" y="567" as="targetPoint" />
            <mxPoint as="offset" />
          </mxGeometry>
        </mxCell>
        <mxCell id="z_axLbrETJpaAguhvrRl-40" value="" style="html=1;points=[];perimeter=orthogonalPerimeter;rounded=0;shadow=0;comic=0;labelBackgroundColor=none;strokeWidth=1;fontFamily=Verdana;fontSize=12;align=center;" parent="1" vertex="1">
          <mxGeometry x="1745" y="555" width="10" height="30" as="geometry" />
        </mxCell>
        <mxCell id="z_axLbrETJpaAguhvrRl-41" value="parse" style="html=1;align=left;spacingLeft=2;endArrow=block;rounded=0;edgeStyle=orthogonalEdgeStyle;curved=0;rounded=0;strokeWidth=1;fontSize=12;labelBackgroundColor=none;fontColor=default;" parent="1" edge="1">
          <mxGeometry x="0.0196" relative="1" as="geometry">
            <mxPoint x="1746" y="492" as="sourcePoint" />
            <Array as="points">
              <mxPoint x="1776" y="522" />
            </Array>
            <mxPoint x="1751" y="522" as="targetPoint" />
            <mxPoint as="offset" />
          </mxGeometry>
        </mxCell>
      </root>
    </mxGraphModel>
  </diagram>
</mxfile>
